<?xml version="1.0" standalone="no"?>
<!DOCTYPE svg PUBLIC "-//W3C//DTD SVG 20010904//EN"
 "http://www.w3.org/TR/2001/REC-SVG-20010904/DTD/svg10.dtd">
<svg version="1.0" xmlns="http://www.w3.org/2000/svg"
 width="980.000000pt" height="980.000000pt" viewBox="0 0 980.000000 980.000000"
 preserveAspectRatio="xMidYMid meet">

<g transform="translate(0.000000,980.000000) scale(0.100000,-0.100000)"
fill="#000000" stroke="none">
<path d="M1590 8645 c0 -3 85 -119 188 -258 415 -556 664 -890 674 -907 9 -14
3 -28 -34 -76 -267 -347 -474 -791 -598 -1282 -153 -600 -176 -1353 -64 -2027
90 -543 268 -1057 514 -1484 70 -123 71 -123 54 -150 -16 -23 -759 -1062 -874
-1221 -26 -36 -50 -71 -54 -77 -6 -10 134 -13 683 -13 l690 0 39 52 c21 29 99
139 172 243 73 105 138 196 145 204 11 11 29 3 112 -47 323 -199 728 -339
1160 -401 247 -36 392 -45 693 -45 244 0 324 4 463 22 418 55 757 162 1095
346 l82 45 38 -52 c21 -29 87 -121 146 -205 60 -85 114 -156 120 -158 6 -2
318 -3 694 -2 l683 3 -247 345 c-136 190 -327 456 -425 593 l-178 247 73 113
c140 212 278 499 374 779 48 139 127 417 120 422 -2 2 -239 62 -528 135 -289
73 -532 134 -540 136 -12 4 -19 -14 -33 -78 -27 -124 -75 -289 -120 -415 -33
-94 -42 -111 -53 -100 -7 7 -172 236 -366 508 -195 272 -479 669 -632 882
l-278 388 241 322 c133 178 396 531 586 786 190 255 349 461 354 458 12 -8
101 -227 147 -361 20 -60 38 -111 39 -113 1 -1 193 42 426 97 623 147 630 148
636 155 12 11 -99 336 -172 506 -78 181 -217 423 -332 576 -29 40 -53 74 -53
78 0 3 64 93 143 199 79 105 237 318 351 472 115 154 221 297 237 317 16 20
29 39 29 42 0 3 -332 6 -737 6 l-738 -1 -100 -144 c-55 -79 -106 -144 -113
-144 -7 -1 -59 19 -115 43 -699 299 -1646 325 -2442 69 -157 -50 -336 -123
-477 -194 -94 -47 -123 -58 -129 -47 -4 7 -72 103 -151 213 l-143 200 -737 3
c-406 1 -738 0 -738 -3z m1487 -272 c1524 -2153 1593 -2252 1753 -2527 34 -58
66 -106 70 -106 4 0 42 58 84 129 97 164 333 517 556 831 95 135 243 344 328
465 86 121 168 237 184 257 l29 38 92 -62 c101 -68 239 -196 328 -304 81 -100
180 -255 170 -268 -8 -11 -315 -424 -570 -766 -79 -107 -255 -343 -391 -525
-319 -429 -314 -421 -304 -437 8 -14 7 -12 584 -818 211 -294 427 -596 480
-670 53 -74 324 -452 601 -840 937 -1308 1035 -1445 1043 -1457 6 -10 -97 -13
-502 -13 l-509 0 -78 113 c-44 61 -111 157 -150 212 -39 55 -157 222 -262 370
-104 149 -257 365 -338 480 -82 116 -201 284 -265 375 -381 541 -539 764 -615
870 -79 109 -342 504 -425 638 -35 56 -66 102 -70 102 -4 0 -27 -32 -51 -72
-105 -170 -461 -694 -730 -1073 -160 -225 -340 -480 -400 -565 l-109 -154
-108 110 c-59 60 -136 151 -172 202 -75 105 -182 288 -206 348 l-16 42 138
193 c76 107 188 264 249 349 61 85 244 340 405 565 161 226 340 475 397 554
57 79 103 148 103 152 0 5 -127 179 -282 386 -155 208 -458 614 -673 903 -389
522 -466 625 -995 1335 -494 663 -555 745 -558 755 -2 7 193 10 546 10 l549 0
90 -127z m2503 98 c902 -123 1572 -568 1997 -1324 98 -175 252 -548 240 -580
-3 -7 -65 -27 -143 -45 -77 -17 -244 -56 -373 -87 -129 -30 -239 -55 -245 -55
-7 0 -35 61 -65 135 -301 772 -777 1183 -1506 1301 -152 24 -543 30 -722 10
-313 -35 -604 -118 -835 -237 -67 -36 -81 -40 -93 -28 -7 8 -51 68 -97 134
-46 66 -128 181 -181 256 -53 75 -97 140 -97 143 0 9 171 93 300 146 339 139
679 217 1100 254 124 11 581 -4 720 -23z m2328 19 c-1 -5 -51 -73 -109 -152
-357 -482 -442 -593 -450 -597 -6 -1 -35 24 -65 58 -114 125 -346 312 -525
422 l-99 61 47 67 c25 36 60 85 76 109 l30 42 550 0 c345 0 547 -4 545 -10z
m-2533 -811 c50 -5 135 -19 190 -30 104 -21 332 -92 360 -113 14 -10 -26 -71
-306 -466 -178 -250 -410 -585 -517 -745 -107 -159 -198 -291 -201 -293 -4 -1
-47 60 -96 135 -130 201 -468 687 -781 1125 -46 64 -84 121 -84 127 0 14 169
94 290 138 326 118 760 164 1145 122z m-2596 -633 c121 -162 227 -305 235
-318 15 -23 13 -31 -41 -149 -225 -498 -345 -1206 -313 -1859 44 -922 271
-1605 687 -2069 326 -362 874 -625 1421 -682 145 -15 503 -6 637 15 276 45
533 136 743 263 41 25 75 43 77 41 1 -1 56 -79 122 -173 66 -93 159 -226 207
-294 83 -118 87 -126 70 -139 -37 -27 -321 -162 -418 -197 -204 -75 -474 -137
-721 -167 -165 -20 -700 -16 -885 5 -803 96 -1353 349 -1812 836 -747 793
-1108 2240 -894 3586 90 564 287 1065 583 1487 42 60 77 108 79 108 1 0 102
-132 223 -294z m676 -908 c173 -233 417 -559 541 -725 l225 -303 -159 -222
c-87 -123 -320 -448 -517 -723 -197 -275 -389 -544 -427 -597 -60 -84 -88
-114 -88 -93 0 3 -20 70 -44 148 -222 716 -243 1622 -56 2361 61 242 180 576
205 576 3 0 147 -190 320 -422z m1561 -2125 c60 -93 170 -253 244 -358 75
-104 161 -226 191 -270 31 -44 176 -251 324 -460 148 -209 289 -408 313 -443
37 -53 42 -65 31 -78 -24 -29 -306 -161 -420 -197 -228 -72 -417 -100 -674
-100 -316 0 -590 53 -875 170 -133 55 -345 171 -401 220 -15 13 13 57 299 461
173 246 381 539 461 652 80 113 200 287 265 388 66 100 123 182 126 182 4 0
56 -75 116 -167z m2548 -369 c210 -53 382 -97 384 -98 8 -9 -93 -313 -163
-486 -76 -188 -288 -580 -314 -580 -10 0 -501 683 -501 697 0 5 18 54 41 109
42 103 122 352 134 417 5 24 13 37 23 37 9 0 187 -43 396 -96z m-5083 -1351
c116 -157 320 -369 465 -485 35 -29 63 -57 61 -63 -3 -5 -73 -108 -158 -227
l-153 -218 -509 0 c-404 0 -507 3 -501 13 4 6 17 26 29 42 50 68 544 759 624
872 47 67 89 122 92 123 4 0 26 -26 50 -57z"/>
</g>
</svg>
